HIERARCHY
ROOT Hips
{
    OFFSET	0	0	0
    CHANNELS 6 Xposition Yposition Zposition Zrotation Xrotation Yrotation
    JOINT LeftHip
    {
	OFFSET	3.43	0	0
	CHANNELS 3 Zrotation Xrotation Yrotation
	JOINT LeftKnee
	{
	    OFFSET	0	-18.47	0
	    CHANNELS 3 Zrotation Xrotation Yrotation
	    JOINT LeftAnkle
	    {
		OFFSET	0	-17.95	0
		CHANNELS 3 Zrotation Xrotation Yrotation
		End Site
		{
		    OFFSET	0	-3.12	0
		}
	    }
	}
    }
    JOINT RightHip
    {
	OFFSET	-3.43	0	0
	CHANNELS 3 Zrotation Xrotation Yrotation
	JOINT RightKnee
	{
	    OFFSET	0	-18.47	0
	    CHANNELS 3 Zrotation Xrotation Yrotation
	    JOINT RightAnkle
	    {
		OFFSET	0	-17.95	0
		CHANNELS 3 Zrotation Xrotation Yrotation
		End Site
		{
		    OFFSET	0	-3.12	0
		}
	    }
	}
    }
    JOINT Chest
    {
	OFFSET	0	4.57	0
	CHANNELS 3 Zrotation Xrotation Yrotation
	JOINT LeftCollar
	{
	    OFFSET	1.06	15.33	1.76
	    CHANNELS 3 Zrotation Xrotation Yrotation
	    JOINT LeftShoulder
	    {
		OFFSET	5.81	0	0
		CHANNELS 3 Zrotation Xrotation Yrotation
		JOINT LeftElbow
		{
		    OFFSET	0	-12.08	0
		    CHANNELS 3 Zrotation Xrotation Yrotation
		    JOINT LeftWrist
		    {
			OFFSET	0	-9.82	0
			CHANNELS 3 Zrotation Xrotation Yrotation
			End Site
			{
			    OFFSET	0	-7.37	0
			}
		    }
		}
	    }
	}
	JOINT RightCollar
	{
	    OFFSET	-1.06	15.33	1.76
	    CHANNELS 3 Zrotation Xrotation Yrotation
	    JOINT RightShoulder
	    {
		OFFSET	-5.81	0	0
		CHANNELS 3 Zrotation Xrotation Yrotation
		JOINT RightElbow
		{
		    OFFSET	0	-12.08	0
		    CHANNELS 3 Zrotation Xrotation Yrotation
		    JOINT RightWrist
		    {
			OFFSET	0	-9.82	0
			CHANNELS 3 Zrotation Xrotation Yrotation
			End Site
			{
			    OFFSET	0	-7.37	0
			}
		    }
		}
	    }
	}
	JOINT Neck
	{
	    OFFSET	0	17.62	0
	    CHANNELS 3 Zrotation Xrotation Yrotation
	    JOINT Head
	    {
		OFFSET	0	5.19	0
		CHANNELS 3 Zrotation Xrotation Yrotation
		End Site
		{
		    OFFSET	0	4.14001	0
		}
	    }
	}
    }
}
MOTION
Frames:	14
Frame Time:	0.033333
 -1.29	 38.23	 -0.61	 -0.69	 2.40	 -77.33	 16.62	 -19.63	 -4.78	 0.00	 22.09	 0.00	 -15.03	 -4.62	 16.73	 -11.57	 -3.17	 2.39	 0.00	 22.03	 0.00	 17.03	 -21.17	 -1.26	 -3.61	 15.77	 12.89	 8.79	 -2.95	 -11.94	 24.29	 1.19	 66.15	 180.00	 -48.70	 180.00	 6.04	 -2.21	 40.60	 -8.36	 -5.74	 4.43	 16.03	 -46.08	 19.37	 180.00	 -58.08	 180.00	 19.61	 -1.23	 -26.87	 -1.75	 18.17	 23.86	 -11.77	 -21.30	 22.00
 -1.31	 38.24	 -0.57	 -0.79	 2.25	 -77.21	 16.46	 -19.49	 -4.60	 0.00	 22.12	 0.00	 -15.12	 -4.70	 16.33	 -11.92	 -2.86	 1.42	 0.00	 21.83	 0.00	 17.42	 -20.88	 -0.47	 -3.75	 15.91	 12.90	 8.80	 -2.94	 -11.96	 24.21	 1.29	 65.91	 180.00	 -48.48	 180.00	 6.04	 -2.02	 40.27	 -8.33	 -5.74	 4.37	 15.57	 -46.02	 19.04	 180.00	 -57.84	 180.00	 19.44	 -1.29	 -27.33	 -1.60	 18.15	 23.92	 -11.71	 -21.30	 21.90
 -1.33	 38.24	 -0.54	 -0.76	 2.16	 -77.00	 16.32	 -19.63	 -4.55	 0.00	 22.29	 0.00	 -15.20	 -4.75	 15.97	 -12.17	 -2.72	 0.67	 0.00	 21.74	 0.00	 17.64	 -20.85	 -0.03	 -3.76	 15.94	 12.79	 8.82	 -2.98	 -12.03	 24.06	 1.45	 65.89	 180.00	 -48.36	 180.00	 5.97	 -1.79	 40.19	 -8.34	 -5.74	 4.39	 15.37	 -46.05	 18.94	 180.00	 -57.63	 180.00	 19.33	 -1.37	 -27.58	 -1.55	 18.08	 23.88	 -11.62	 -21.30	 21.88
 -1.34	 38.22	 -0.52	 -0.65	 2.14	 -76.63	 16.16	 -20.03	 -4.77	 0.00	 22.63	 0.00	 -15.26	 -4.78	 15.72	 -12.31	 -2.63	 0.08	 0.00	 21.66	 0.00	 17.69	 -21.05	 0.07	 -3.55	 15.91	 12.58	 8.86	 -3.07	 -12.03	 23.86	 1.52	 65.64	 180.00	 -48.46	 180.00	 6.02	 -1.69	 40.16	 -8.44	 -5.72	 4.41	 15.47	 -46.20	 19.05	 180.00	 -57.46	 180.00	 19.24	 -1.45	 -27.56	 -1.63	 17.95	 23.56	 -11.59	 -21.40	 22.00
 -1.34	 38.20	 -0.49	 -0.56	 2.17	 -76.01	 15.96	 -20.53	 -5.25	 0.00	 22.95	 0.00	 -15.31	 -4.70	 15.51	 -12.37	 -2.45	 -0.56	 0.00	 21.53	 0.00	 17.64	 -21.32	 -0.04	 -3.24	 15.92	 12.33	 9.01	 -3.24	 -12.00	 23.67	 1.45	 64.83	 180.00	 -48.72	 180.00	 6.03	 -1.65	 39.93	 -8.68	 -5.72	 4.43	 15.58	 -46.22	 18.98	 180.00	 -57.23	 180.00	 19.15	 -1.61	 -27.54	 -1.71	 17.77	 22.85	 -11.68	 -21.61	 22.25
 -1.36	 38.19	 -0.47	 -0.66	 2.19	 -75.02	 15.69	 -20.81	 -5.96	 0.00	 22.96	 0.00	 -15.40	 -4.38	 15.18	 -12.37	 -1.91	 -1.33	 0.00	 21.29	 0.00	 17.40	 -21.27	 -0.54	 -2.93	 16.10	 12.14	 9.15	 -3.40	 -11.98	 23.81	 0.83	 63.07	 180.00	 -49.21	 180.00	 5.66	 -1.24	 39.26	 -8.88	 -5.68	 4.38	 15.14	 -46.06	 18.19	 180.00	 -56.98	 180.00	 19.10	 -1.65	 -27.45	 -1.65	 17.73	 21.88	 -11.79	 -21.81	 22.42
 -1.38	 38.24	 -0.45	 -0.88	 2.14	 -73.55	 15.28	 -20.87	 -6.97	 0.00	 22.51	 0.00	 -15.54	 -3.61	 14.68	 -12.33	 -1.08	 -2.37	 0.00	 20.93	 0.00	 16.92	 -20.56	 -1.55	 -2.76	 16.34	 12.09	 9.22	 -3.45	 -11.90	 24.50	 -0.93	 60.21	 180.00	 -49.96	 180.00	 4.93	 -0.08	 37.62	 -8.97	 -5.51	 4.17	 13.67	 -45.78	 16.21	 180.00	 -56.71	 180.00	 19.17	 -1.39	 -27.20	 -1.38	 17.98	 20.78	 -11.71	 -21.93	 22.24
 -1.40	 38.33	 -0.43	 -0.83	 2.09	 -71.74	 14.72	 -21.16	 -8.19	 0.00	 21.84	 0.00	 -15.67	 -2.33	 14.14	 -12.35	 -0.58	 -3.87	 0.00	 20.77	 0.00	 16.46	 -19.37	 -2.61	 -2.91	 16.34	 12.36	 9.32	 -3.40	 -11.78	 25.63	 -3.97	 56.73	 180.00	 -50.62	 180.00	 4.49	 1.79	 34.46	 -8.99	 -5.40	 3.91	 11.00	 -45.28	 12.66	 180.00	 -56.09	 180.00	 19.37	 -0.90	 -27.00	 -0.95	 18.44	 19.49	 -11.23	 -22.01	 21.83
 -1.39	 38.39	 -0.44	 -0.34	 2.09	 -69.93	 14.11	 -22.02	 -9.31	 0.00	 21.37	 0.00	 -15.76	 -0.98	 13.57	 -12.45	 -0.93	 -5.37	 0.00	 21.34	 0.00	 16.19	 -18.54	 -3.27	 -3.46	 15.97	 13.13	 9.49	 -3.28	 -11.63	 26.82	 -8.02	 53.19	 180.00	 -50.88	 180.00	 4.49	 3.75	 30.52	 -9.05	 -5.40	 3.72	 7.66	 -44.76	 8.00	 180.00	 -55.00	 180.00	 19.80	 -0.45	 -26.98	 -0.53	 18.88	 17.86	 -10.43	 -22.26	 21.34
 -1.34	 38.35	 -0.49	 0.34	 2.02	 -68.48	 13.48	 -23.17	 -10.10	 0.00	 21.30	 0.00	 -15.83	 -0.36	 13.04	 -12.67	 -2.05	 -5.99	 0.00	 22.93	 0.00	 15.99	 -18.87	 -3.67	 -4.50	 15.54	 14.52	 9.77	 -3.10	 -11.45	 27.73	 -12.74	 50.05	 180.00	 -50.44	 180.00	 4.20	 5.22	 27.24	 -9.15	 -5.52	 3.57	 4.00	 -44.61	 2.85	 180.00	 -53.54	 180.00	 20.04	 -0.28	 -27.33	 -0.22	 19.03	 15.84	 -9.39	 -22.78	 20.85
 -1.25	 38.19	 -0.55	 1.02	 1.70	 -67.66	 12.77	 -24.46	 -10.24	 0.00	 21.97	 0.00	 -15.96	 -0.95	 12.51	 -13.15	 -3.71	 -5.54	 0.00	 25.52	 0.00	 15.76	 -20.79	 -3.92	 -6.24	 15.31	 16.54	 10.13	 -2.83	 -11.33	 27.88	 -17.76	 47.41	 180.00	 -48.99	 180.00	 4.00	 5.97	 25.05	 -9.19	 -5.86	 3.47	 0.00	 -44.78	 -2.45	 180.00	 -51.79	 180.00	 19.60	 -0.68	 -28.70	 0.01	 18.68	 13.47	 -8.03	 -23.64	 20.54
 -1.14	 37.90	 -0.63	 1.53	 1.18	 -67.58	 12.16	 -26.02	 -9.47	 0.00	 23.89	 0.00	 -16.18	 -2.38	 11.81	 -13.65	 -5.61	 -4.16	 0.00	 28.66	 0.00	 15.22	 -24.18	 -4.52	 -8.59	 15.29	 19.21	 10.41	 -2.32	 -11.27	 27.32	 -22.96	 45.24	 180.00	 -46.63	 180.00	 3.43	 6.25	 23.64	 -8.95	 -6.49	 3.45	 -4.44	 -44.84	 -7.61	 180.00	 -50.15	 180.00	 18.36	 -1.78	 -31.41	 0.20	 17.94	 11.04	 -6.37	 -24.83	 20.48
 -1.01	 37.56	 -0.72	 1.91	 0.57	 -68.36	 11.84	 -27.62	 -8.13	 0.00	 26.55	 0.00	 -16.40	 -3.80	 11.14	 -14.09	 -7.80	 -2.29	 0.00	 32.08	 0.00	 14.36	 -27.73	 -5.53	 -11.17	 15.34	 22.22	 10.53	 -1.62	 -11.25	 25.99	 -27.25	 43.65	 180.00	 -43.83	 180.00	 2.50	 5.99	 22.82	 -8.44	 -7.37	 3.59	 -8.48	 -44.59	 -12.03	 180.00	 -49.00	 180.00	 16.76	 -3.19	 -34.47	 0.17	 17.11	 9.17	 -4.92	 -25.99	 20.51
 -0.85	 37.28	 -0.77	 2.18	 -0.01	 -69.89	 11.84	 -28.73	 -6.73	 0.00	 28.82	 0.00	 -16.49	 -4.86	 11.03	 -14.64	 -10.13	 -0.95	 0.00	 35.18	 0.00	 14.05	 -29.75	 -5.72	 -13.29	 15.55	 24.67	 10.63	 -1.18	 -11.54	 23.93	 -28.15	 43.78	 180.00	 -40.85	 180.00	 1.92	 4.77	 23.50	 -7.98	 -8.37	 4.05	 -10.42	 -44.51	 -14.29	 180.00	 -48.62	 180.00	 15.83	 -3.97	 -36.38	 -0.32	 16.51	 8.48	 -4.30	 -26.79	 20.64
